<svg t="1734834395145" viewBox="0 0 1024 1024" xmlns="http://www.w3.org/2000/svg" p-id="11320">
  <path d="M512.006827 1020.59008C231.120213 1020.59008 3.413333 792.85248 3.413333 512.003413S231.120213 3.40992 512.006827 3.40992 1020.586667 231.1168 1020.586667 512.003413c0 280.89344-227.730773 508.586667-508.57984 508.586667z m278.278826-537.378133a19.13856 19.13856 0 0 0-19.135146-19.135147h-211.162454V252.914347a19.135147 19.135147 0 0 0-19.135146-19.135147H483.2256a19.135147 19.135147 0 0 0-19.13856 19.135147v211.11808H252.91776a19.135147 19.135147 0 0 0-19.135147 19.13856v57.57952a19.135147 19.135147 0 0 0 19.135147 19.135146h211.121493v211.2a19.135147 19.135147 0 0 0 19.135147 19.13856h57.57952a19.13856 19.13856 0 0 0 19.13856-19.13856v-211.101013h211.2a19.135147 19.135147 0 0 0 19.131733-19.13856l0.06144-57.634133z" fill="currentColor" p-id="11321"></path>
</svg>
