<svg t="1734831866549" viewBox="0 0 1024 1024" fill="none" stroke="currentColor" xmlns="http://www.w3.org/2000/svg" p-id="5047">
  <path d="M512 128c51.9 0 102.2 10.1 149.5 30.2 45.7 19.3 86.8 47 122.1 82.3s63 76.4 82.3 122.1c20 47.3 30.2 97.6 30.2 149.5S886 614.3 865.9 661.6c-19.3 45.7-47 86.8-82.3 122.1s-76.4 63-122.1 82.3c-47.3 20-97.6 30.2-149.5 30.2S409.8 886.1 362.5 866c-45.7-19.3-86.8-47-122.1-82.3s-63-76.4-82.3-122.1c-20-47.3-30.2-97.6-30.2-149.5s10.1-102.2 30.2-149.5c19.3-45.7 47-86.8 82.3-122.1s76.4-63 122.1-82.3C409.8 138.1 460.1 128 512 128m0-64C264.6 64 64 264.6 64 512s200.6 448 448 448 448-200.6 448-448S759.4 64 512 64z" fill="" p-id="5048"></path><path d="M704 448H576V320c0-35.2-28.8-64-64-64s-64 28.8-64 64v128H320c-35.2 0-64 28.8-64 64s28.8 64 64 64h128v128c0 35.2 28.8 64 64 64s64-28.8 64-64V576h128c35.2 0 64-28.8 64-64s-28.8-64-64-64z" p-id="5049"></path>
</svg>
