<svg t="1745111861903" class="icon" viewBox="0 0 1024 1024" version="1.1" xmlns="http://www.w3.org/2000/svg" p-id="9457"><path d="M69.157287 700.35703l-35.836982 155.634895c-0.511957 2.047828-1.023914 3.583698-1.535871 5.631526l-19.454362 84.984845v1.023913l-0.511957 1.535871c-8.19131 43.516336 30.205457 81.913103 73.721793 73.721793l2.047828-0.511957h0.511956l84.984845-19.454362h0.511957l163.826205-37.372853-268.265412-265.193671zM981.976428 248.299093L764.906705 31.22937c-41.468508-41.468508-110.070732-41.468508-151.53924 0L537.597845 106.998991l368.608963 368.608963 75.76962-75.76962c41.980465-41.468508 41.980465-110.070732 0-151.539241zM496.641293 147.443585l-375.264403 375.264403c-9.727181 63.482655 4.095655 105.46312 69.114181 100.343551L450.565173 371.168748l23.03806 23.03806L220.184571 639.43416c15.870664 102.903336 82.937017 143.34793 173.553387 155.634895-11.775009 71.673965 7.167397 115.702258 96.247896 96.247896l375.264402-375.264403-272.361067-272.361067L496.641293 147.443585z" fill="currentColor" p-id="9458"></path></svg>
