<svg t="1735016617676" viewBox="0 0 1024 1024" xmlns="http://www.w3.org/2000/svg" p-id="4263">
  <path d="M528.4 492.6c-10.6 10.7-10.6 28 0 38.7l239 241.3C699.2 845 602.8 890.2 495.9 890.2c-207 0-374.7-169.3-374.7-378.3 0-208.9 167.7-378.2 374.7-378.2 106.9 0 203.3 45.2 271.6 117.6L528.4 492.6z m-52.4-115c42 0 76-34.3 76-76.7 0-42.4-34-76.7-76-76.7s-76 34.4-76 76.7c0 42.4 34.1 76.7 76 76.7z m397.3 198.5c7.6 2.7 13.7 8.3 17.2 15.7 3.4 7.4 3.9 15.7 1.1 23.4-4.3 12.1-15.8 20.2-28.5 20.2-3.5 0-6.9-0.6-10.2-1.8L718.5 585c-7.6-2.7-13.7-8.3-17.2-15.7-3.4-7.4-3.9-15.7-1.1-23.4 4.3-12.1 15.8-20.3 28.5-20.3 3.5 0 6.9 0.6 10.2 1.8l134.4 48.7zM721.5 450.5c1.5-8.1 6-15 12.6-19.6l121.3-84c5.1-3.5 11-5.4 17.1-5.4 10 0 19.4 5 25 13.3 9.5 13.9 5.9 33-7.8 42.5l-121.3 83.9c-5.1 3.5-11 5.4-17.1 5.4-10 0-19.3-5-25-13.3-4.6-6.7-6.3-14.8-4.8-22.8z" fill="currentColor" p-id="4264"></path>
</svg>
