<svg t="1734831752503" viewBox="0 0 1024 1024" xmlns="http://www.w3.org/2000/svg" p-id="4061">
  <path d="M785.171864 102.424232H136.60875q-136.517822 0-136.563803 136.563803V887.436197q0 136.517822 136.563803 136.563803h648.563114q136.517822 0 136.563803-136.563803V238.988035q0-136.517822-136.563803-136.563803z m-207.305693 697.969783l-37.336636-136.448851h-172.429045l-37.336636 136.448851H222.984206l170.129991-531.541269h125.045543l170.911669 531.541269z" fill="currentColor" p-id="4062"></path>
  <path d="M454.981738 349.434586h-2.873817a3810.383013 3810.383013 0 0 1-45.245381 173.785487l-15.840482 58.212045h126.447966l-15.840481-58.212045c-16.415245-55.315238-30.807323-116.309138-46.647805-173.785487z" fill="currentColor" p-id="4063"></path>
  <path d="M984.040029 40.004918A136.609785 136.609785 0 0 0 887.479764 0.001379H239.031603a136.586794 136.586794 0 0 0-136.563804 123.919007v12.644797l28.945089 28.99107h72.397208L155.690898 117.437054a85.064995 85.064995 0 0 1 83.294724-66.212753h648.448161a85.317891 85.317891 0 0 1 85.432844 85.340882v648.448161a84.674156 84.674156 0 0 1-66.212754 83.294724l-63.913699-63.844728v72.397208l44.73959 44.73959h11.93209a136.356889 136.356889 0 0 0 124.539751-136.563804V136.565183a136.081002 136.081002 0 0 0-39.888586-96.560265z" fill="currentColor" p-id="4064"></path>
</svg>
